<?xml version="1.0" encoding="UTF-8" standalone="no"?>
<!-- Created with Inkscape (http://www.inkscape.org/) -->

<svg
   xmlns:dc="http://purl.org/dc/elements/1.1/"
   xmlns:cc="http://creativecommons.org/ns#"
   xmlns:rdf="http://www.w3.org/1999/02/22-rdf-syntax-ns#"
   xmlns:svg="http://www.w3.org/2000/svg"
   xmlns="http://www.w3.org/2000/svg"
   version="1.1"
   width="892.91339"
   height="332.71652"
   id="svg6010">
  <defs
     id="defs6012" />
  <metadata
     id="metadata6015">
    <rdf:RDF>
      <cc:Work
         rdf:about="">
        <dc:format>image/svg+xml</dc:format>
        <dc:type
           rdf:resource="http://purl.org/dc/dcmitype/StillImage" />
        <dc:title></dc:title>
      </cc:Work>
    </rdf:RDF>
  </metadata>
  <g
     transform="translate(49.75323,-384.82184)"
     id="layer1">
    <g
       transform="matrix(5.2703379,0,0,5.2703379,-1184.3979,-2284.6647)"
       id="g6043">
      <g
         transform="matrix(1.25,0,0,-1.25,309.08473,555.20897)"
         id="g5804">
        <path
           d="m 0,0 c -3.614,0 -5.814,2.593 -4.872,6.836 0.943,4.243 1.886,9.114 2.829,13.357 0.943,4.243 3.85,6.836 8.8,6.836 l 13.906,0 c 4.793,0 6.915,-2.043 5.893,-6.993 -0.613,-2.973 -1.021,-5.028 -1.414,-6.914 -0.393,-1.886 -1.65,-3.536 -5.264,-3.536 l -16.296,0 C 3.379,8.625 3.215,8.063 3.124,7.605 2.652,5.248 4.46,5.091 5.795,5.091 l 17.383,0 L 22.235,0 0,0 z m 4.91,15.557 13.492,0.002 c 0,0 0.474,2.383 0.598,3.251 0.124,0.868 -0.62,1.611 -1.735,1.611 l -8.739,0 c -1.487,0 -2.664,-0.31 -3.098,-2.479 L 4.91,15.557"
           id="path5806"
           style="fill:#5a5758;fill-opacity:1;fill-rule:evenodd;stroke:none" />
      </g>
      <g
         transform="matrix(1.25,0,0,-1.25,273.38972,555.20897)"
         id="g5808">
        <path
           d="m 0,0 -7.955,0 c 0,0 4.071,19.176 4.297,20.193 0.943,4.243 3.85,6.836 8.8,6.836 l 11.925,0 c 4.793,0 6.914,-2.043 5.893,-6.993 l -0.612,-2.986 -7.215,0 c 0.124,0.656 0.214,1.365 0.27,1.76 0.124,0.868 -0.62,1.611 -1.735,1.611 l -6.757,0 c -1.487,0 -2.665,-0.31 -3.099,-2.479 L 0,0"
           id="path5810"
           style="fill:#5a5758;fill-opacity:1;fill-rule:nonzero;stroke:none" />
      </g>
      <g
         transform="matrix(1.25,0,0,-1.25,236.42985,529.67647)"
         id="g5812">
        <path
           d="m 0,0 c -0.984,0 -1.951,-0.798 -2.16,-1.782 l -2.375,-11.17 c -0.209,-0.984 0.419,-1.782 1.403,-1.782 l 12.22,0 c 0.984,0 1.952,0.798 2.161,1.782 l 0.71,3.341 7.309,0 -1.527,-7.279 c -0.393,-1.886 -1.65,-3.536 -5.264,-3.536 l -14.633,0 -3.558,2.353 -2.798,-13.36 -7.863,0 6.638,31.201 c 0.943,4.243 3.852,6.835 8.802,6.835 l 6.312,0 L 3.946,0 0,0"
           id="path5814"
           style="fill:#5a5758;fill-opacity:1;fill-rule:nonzero;stroke:none" />
      </g>
      <g
         transform="matrix(1.25,0,0,-1.25,249.5436,521.42397)"
         id="g5816">
        <path
           d="m 0,0 4.651,0 c 4.793,0 6.914,-2.043 5.893,-6.993 l -0.979,-4.429 c 0,0 -8.851,-10e-4 -9.938,-10e-4 -1.549,0 -1.958,0.867 -1.753,1.842 C -1.617,-7.157 0,0 0,0"
           id="path5818"
           style="fill:#548aa2;fill-opacity:1;fill-rule:nonzero;stroke:none" />
      </g>
      <g
         transform="matrix(1.25,0,0,-1.25,352.7861,507.18522)"
         id="g5820">
        <path
           d="m 0,0 7.955,0 -2.948,-13.876 4.23,2.485 9.622,0 c 4.792,0 6.914,-2.042 5.892,-6.992 l -4.238,-20.036 -7.217,0 c 0,0 3.899,18.426 3.951,18.79 0.124,0.868 -0.672,1.631 -1.787,1.631 l -8.739,0 c -1.487,0 -2.664,-0.31 -3.098,-2.479 l -3.813,-17.942 -7.96,0 L 0,0"
           id="path5822"
           style="fill:#5a5758;fill-opacity:1;fill-rule:nonzero;stroke:none" />
      </g>
    </g>
  </g>
</svg>
